<svg width="200" height="200" viewBox="0 0 200 200" fill="none" xmlns="http://www.w3.org/2000/svg">
<rect width="200" height="200" fill="url(#paint0_linear_92_5)"/>
<path d="M101.66 97.94V87.38H173.82V160.42C167.953 169.807 159.593 177.067 148.74 182.2C137.887 187.333 124.687 189.9 109.14 189.9C91.54 189.9 76.36 186.233 63.6 178.9C50.84 171.567 40.94 161.153 33.9 147.66C27.0067 134.02 23.56 117.887 23.56 99.26C23.56 81.22 26.9333 65.4533 33.68 51.96C40.5733 38.4667 50.1067 27.98 62.28 20.5C74.4533 13.02 88.46 9.27999 104.3 9.27999C120.873 9.27999 134.88 12.36 146.32 18.52C157.907 24.5333 166.193 32.6733 171.18 42.94L164.14 49.54C157.833 38.6867 149.547 31.06 139.28 26.66C129.013 22.1133 117.353 19.84 104.3 19.84C90.3667 19.84 78.12 23.14 67.56 29.74C57 36.34 48.7867 45.6533 42.92 57.68C37.0533 69.56 34.12 83.42 34.12 99.26C34.12 115.687 37.1267 129.913 43.14 141.94C49.3 153.967 57.9533 163.28 69.1 169.88C80.3933 176.333 93.74 179.56 109.14 179.56C134.66 179.56 152.7 172.153 163.26 157.34V97.94H101.66ZM101.66 120.82V110.26H149.84V147.44C146.027 153.6 140.747 158.513 134 162.18C127.253 165.847 118.967 167.68 109.14 167.68C99.3133 167.68 90.22 165.04 81.86 159.76C73.5 154.48 66.8267 146.78 61.84 136.66C56.8533 126.393 54.36 113.927 54.36 99.26C54.36 84.8867 56.7067 72.7867 61.4 62.96C66.24 52.9867 72.7667 45.4333 80.98 40.3C89.1933 35.1667 98.4333 32.6 108.7 32.6C117.353 32.6 125.787 34.6533 134 38.76C142.213 42.72 149.107 49.32 154.68 58.56L146.54 66.26C142.727 59.0733 137.593 53.4267 131.14 49.32C124.833 45.2133 117.353 43.16 108.7 43.16C100.193 43.16 92.64 45.36 86.04 49.76C79.44 54.16 74.2333 60.54 70.42 68.9C66.7533 77.26 64.92 87.38 64.92 99.26C64.92 111.433 66.9 121.847 70.86 130.5C74.82 139.153 80.1 145.753 86.7 150.3C93.4467 154.847 100.927 157.12 109.14 157.12C116.62 157.12 122.927 155.947 128.06 153.6C133.193 151.107 136.933 148.027 139.28 144.36V120.82H101.66Z" fill="white"/>
<defs>
<linearGradient id="paint0_linear_92_5" x1="-1.59656e-08" y1="102.857" x2="200" y2="102.857" gradientUnits="userSpaceOnUse">
<stop stop-color="#FA9CFC"/>
<stop offset="0.0001" stop-color="#FD97FF"/>
<stop offset="1" stop-color="#95ECFF"/>
</linearGradient>
</defs>
</svg>
